<?xml version="1.0" encoding="UTF-8" standalone="no"?>
<svg
   xmlns:dc="http://purl.org/dc/elements/1.1/"
   xmlns:cc="http://creativecommons.org/ns#"
   xmlns:rdf="http://www.w3.org/1999/02/22-rdf-syntax-ns#"
   xmlns:svg="http://www.w3.org/2000/svg"
   xmlns="http://www.w3.org/2000/svg"
   xmlns:sodipodi="http://sodipodi.sourceforge.net/DTD/sodipodi-0.dtd"
   xmlns:inkscape="http://www.inkscape.org/namespaces/inkscape"
   viewBox="0 0 1097.6025 579.26261"
   height="579.26263"
   width="1097.6025"
   xml:space="preserve"
   version="1.1"
   id="svg2"
   inkscape:version="0.91 r13725"
   sodipodi:docname="cometisolated.svg"><sodipodi:namedview
     pagecolor="#ffffff"
     bordercolor="#666666"
     borderopacity="1"
     objecttolerance="10"
     gridtolerance="10"
     guidetolerance="10"
     inkscape:pageopacity="0"
     inkscape:pageshadow="2"
     inkscape:window-width="1916"
     inkscape:window-height="1035"
     id="namedview5837"
     showgrid="false"
     fit-margin-top="0"
     fit-margin-left="0"
     fit-margin-right="0"
     fit-margin-bottom="0"
     inkscape:zoom="0.43861629"
     inkscape:cx="452.6624"
     inkscape:cy="126.40538"
     inkscape:window-x="10"
     inkscape:window-y="11"
     inkscape:window-maximized="0"
     inkscape:current-layer="g14" /><metadata
     id="metadata8"><rdf:RDF><cc:Work
         rdf:about=""><dc:format>image/svg+xml</dc:format><dc:type
           rdf:resource="http://purl.org/dc/dcmitype/StillImage" /><dc:title></dc:title><dc:description>isolated by j4p4n</dc:description><cc:license
           rdf:resource="http://creativecommons.org/publicdomain/zero/1.0/" /></cc:Work><cc:License
         rdf:about="http://creativecommons.org/publicdomain/zero/1.0/"><cc:permits
           rdf:resource="http://creativecommons.org/ns#Reproduction" /><cc:permits
           rdf:resource="http://creativecommons.org/ns#Distribution" /><cc:permits
           rdf:resource="http://creativecommons.org/ns#DerivativeWorks" /></cc:License></rdf:RDF></metadata><defs
     id="defs6"><clipPath
       id="clipPath16"
       clipPathUnits="userSpaceOnUse"><path
         id="path18"
         d="m 0,841.89 595.276,0 L 595.276,0 0,0 0,841.89 Z"
         inkscape:connector-curvature="0" /></clipPath><clipPath
       id="clipPath24"
       clipPathUnits="userSpaceOnUse"><path
         id="path26"
         d="m 513.763,517.478 c 0,114.184 -96.941,206.748 -216.522,206.748 -119.58,0 -216.519,-92.564 -216.519,-206.748 l 433.041,0 z"
         inkscape:connector-curvature="0" /></clipPath><clipPath
       id="clipPath110"
       clipPathUnits="userSpaceOnUse"><path
         id="path112"
         d="m 0,841.89 595.276,0 L 595.276,0 0,0 0,841.89 Z"
         inkscape:connector-curvature="0" /></clipPath></defs><g
     transform="matrix(1.25,0,0,-1.25,177.24812,1023.8482)"
     id="g10"><g
       transform="matrix(2,0,0,2,-297.2425,-635.37347)"
       id="g12"><g
         clip-path="url(#clipPath16)"
         id="g14"><g
           id="g6379"><g
             id="g20"><g
               id="g22"
               clip-path="url(#clipPath24)"><path
                 inkscape:connector-curvature="0"
                 d="m 524.476,685.885 -451.527,0 0,43.363 451.527,0 0,-43.363 z"
                 style="fill:#8210d2;fill-opacity:1;fill-rule:nonzero;stroke:none"
                 id="path28" /><path
                 inkscape:connector-curvature="0"
                 d="m 524.476,685.885 -451.528,0 0,43.364 451.528,0 0,-43.364 z"
                 style="fill:none;stroke:#000000;stroke-width:6;stroke-linecap:butt;stroke-linejoin:miter;stroke-miterlimit:4;stroke-dasharray:none;stroke-opacity:1"
                 id="path30" /><path
                 inkscape:connector-curvature="0"
                 d="m 524.475,642.522 -451.526,0 0,43.363 451.526,0 0,-43.363 z"
                 style="fill:#5710d2;fill-opacity:1;fill-rule:nonzero;stroke:none"
                 id="path32" /><path
                 inkscape:connector-curvature="0"
                 d="m 524.475,642.522 -451.527,0 0,43.363 451.527,0 0,-43.363 z"
                 style="fill:none;stroke:#000000;stroke-width:6;stroke-linecap:butt;stroke-linejoin:miter;stroke-miterlimit:4;stroke-dasharray:none;stroke-opacity:1"
                 id="path34" /><path
                 inkscape:connector-curvature="0"
                 d="m 524.478,599.159 -451.529,0 0,43.363 451.529,0 0,-43.363 z"
                 style="fill:#3b10d2;fill-opacity:1;fill-rule:nonzero;stroke:none"
                 id="path36" /><path
                 inkscape:connector-curvature="0"
                 d="m 524.478,599.159 -451.53,0 0,43.363 451.53,0 0,-43.363 z"
                 style="fill:none;stroke:#000000;stroke-width:6;stroke-linecap:butt;stroke-linejoin:miter;stroke-miterlimit:4;stroke-dasharray:none;stroke-opacity:1"
                 id="path38" /><path
                 inkscape:connector-curvature="0"
                 d="m 524.476,555.796 -451.527,0 0,43.363 451.527,0 0,-43.363 z"
                 style="fill:#2b10d2;fill-opacity:1;fill-rule:nonzero;stroke:none"
                 id="path40" /><path
                 inkscape:connector-curvature="0"
                 d="m 524.476,555.796 -451.528,0 0,43.363 451.528,0 0,-43.363 z"
                 style="fill:none;stroke:#000000;stroke-width:6;stroke-linecap:butt;stroke-linejoin:miter;stroke-miterlimit:4;stroke-dasharray:none;stroke-opacity:1"
                 id="path42" /><path
                 inkscape:connector-curvature="0"
                 d="m 524.475,512.433 -451.526,0 0,43.363 451.526,0 0,-43.363 z"
                 style="fill:#0010d2;fill-opacity:1;fill-rule:nonzero;stroke:none"
                 id="path44" /><path
                 inkscape:connector-curvature="0"
                 d="m 524.475,512.433 -451.527,0 0,43.363 451.527,0 0,-43.363 z"
                 style="fill:none;stroke:#000000;stroke-width:6;stroke-linecap:butt;stroke-linejoin:miter;stroke-miterlimit:4;stroke-dasharray:none;stroke-opacity:1"
                 id="path46" /><path
                 inkscape:connector-curvature="0"
                 d="M 500.45,826.48 199.672,558.33 208.824,548.561 520.069,804.244 500.45,826.48 Z"
                 style="fill:#ffff00;fill-opacity:1;fill-rule:nonzero;stroke:none"
                 id="path48" /><path
                 inkscape:connector-curvature="0"
                 d="M 500.45,826.48 199.672,558.33 208.824,548.561 520.069,804.244 500.45,826.48 Z"
                 style="fill:none;stroke:#000000;stroke-width:6;stroke-linecap:butt;stroke-linejoin:miter;stroke-miterlimit:4;stroke-dasharray:none;stroke-opacity:1"
                 id="path50" /><path
                 inkscape:connector-curvature="0"
                 d="M 520.069,804.244 208.716,548.667 217.207,538.37 542.708,775.463 520.069,804.244 Z"
                 style="fill:#ff0000;fill-opacity:1;fill-rule:nonzero;stroke:none"
                 id="path52" /><path
                 inkscape:connector-curvature="0"
                 d="M 520.069,804.244 208.716,548.667 217.207,538.37 542.708,775.463 520.069,804.244 Z"
                 style="fill:none;stroke:#000000;stroke-width:6;stroke-linecap:butt;stroke-linejoin:miter;stroke-miterlimit:4;stroke-dasharray:none;stroke-opacity:1"
                 id="path54" /><path
                 inkscape:connector-curvature="0"
                 d="M 542.708,775.463 217.207,538.37 l 7.799,-10.786 338.549,217.621 -20.847,30.258 z"
                 style="fill:#ffff00;fill-opacity:1;fill-rule:nonzero;stroke:none"
                 id="path56" /><path
                 inkscape:connector-curvature="0"
                 d="M 542.708,775.463 217.207,538.37 l 7.799,-10.786 338.549,217.621 -20.847,30.258 z"
                 style="fill:none;stroke:#000000;stroke-width:6;stroke-linecap:butt;stroke-linejoin:miter;stroke-miterlimit:4;stroke-dasharray:none;stroke-opacity:1"
                 id="path58" /><path
                 inkscape:connector-curvature="0"
                 d="M 563.555,745.205 225.006,527.584 232.078,516.356 582.436,713.68 563.555,745.205 Z"
                 style="fill:#ff0000;fill-opacity:1;fill-rule:nonzero;stroke:none"
                 id="path60" /><path
                 inkscape:connector-curvature="0"
                 d="M 563.555,745.205 225.006,527.584 232.078,516.356 582.436,713.68 563.555,745.205 Z"
                 style="fill:none;stroke:#000000;stroke-width:6;stroke-linecap:butt;stroke-linejoin:miter;stroke-miterlimit:4;stroke-dasharray:none;stroke-opacity:1"
                 id="path62" /><path
                 inkscape:connector-curvature="0"
                 d="M 582.436,713.68 232.078,516.356 238.396,504.729 596.275,687.311 582.436,713.68 Z"
                 style="fill:#ffff00;fill-opacity:1;fill-rule:nonzero;stroke:none"
                 id="path64" /><path
                 inkscape:connector-curvature="0"
                 d="M 582.436,713.68 232.078,516.356 238.396,504.729 596.275,687.311 582.436,713.68 Z"
                 style="fill:none;stroke:#000000;stroke-width:6;stroke-linecap:butt;stroke-linejoin:miter;stroke-miterlimit:4;stroke-dasharray:none;stroke-opacity:1"
                 id="path66" /><path
                 inkscape:connector-curvature="0"
                 d="m 138.311,583.369 7.496,-15.189 16.763,-2.436 -12.13,-11.823 2.864,-16.695 -14.993,7.882 -14.994,-7.882 2.864,16.695 -12.13,11.823 16.763,2.436 7.497,15.189 z"
                 style="fill:#ffffff;fill-opacity:1;fill-rule:nonzero;stroke:none"
                 id="path68" /><path
                 inkscape:connector-curvature="0"
                 d="m 138.311,583.369 7.496,-15.189 16.763,-2.436 -12.13,-11.823 2.864,-16.695 -14.993,7.882 -14.994,-7.882 2.864,16.695 -12.13,11.823 16.763,2.436 7.497,15.189 z"
                 style="fill:none;stroke:#000000;stroke-width:6;stroke-linecap:butt;stroke-linejoin:miter;stroke-miterlimit:4;stroke-dasharray:none;stroke-opacity:1"
                 id="path70" /><path
                 inkscape:connector-curvature="0"
                 d="m 198.935,670.586 7.497,-15.189 16.762,-2.436 -12.13,-11.823 2.864,-16.695 -14.993,7.882 -14.993,-7.882 2.864,16.695 -12.13,11.823 16.762,2.436 7.497,15.189 z"
                 style="fill:#ffffff;fill-opacity:1;fill-rule:nonzero;stroke:none"
                 id="path72" /><path
                 inkscape:connector-curvature="0"
                 d="m 198.935,670.586 7.497,-15.189 16.762,-2.436 -12.13,-11.823 2.864,-16.695 -14.993,7.882 -14.993,-7.882 2.864,16.695 -12.13,11.823 16.762,2.436 7.497,15.189 z"
                 style="fill:none;stroke:#000000;stroke-width:6;stroke-linecap:butt;stroke-linejoin:miter;stroke-miterlimit:4;stroke-dasharray:none;stroke-opacity:1"
                 id="path74" /><path
                 inkscape:connector-curvature="0"
                 d="m 277.033,713.669 7.496,-15.19 16.764,-2.435 -12.131,-11.823 2.864,-16.696 -14.993,7.883 -14.993,-7.883 2.864,16.696 -12.13,11.823 16.763,2.435 7.496,15.19 z"
                 style="fill:#ffffff;fill-opacity:1;fill-rule:nonzero;stroke:none"
                 id="path76" /><path
                 inkscape:connector-curvature="0"
                 d="m 277.033,713.669 7.496,-15.19 16.764,-2.435 -12.131,-11.823 2.864,-16.696 -14.993,7.883 -14.993,-7.883 2.864,16.696 -12.13,11.823 16.763,2.435 7.496,15.19 z"
                 style="fill:none;stroke:#000000;stroke-width:6;stroke-linecap:butt;stroke-linejoin:miter;stroke-miterlimit:4;stroke-dasharray:none;stroke-opacity:1"
                 id="path78" /><path
                 inkscape:connector-curvature="0"
                 d="m 441.926,582.742 7.496,-15.189 16.763,-2.436 -12.13,-11.823 2.863,-16.695 -14.992,7.882 -14.994,-7.882 2.864,16.695 -12.13,11.823 16.763,2.436 7.497,15.189 z"
                 style="fill:#ffffff;fill-opacity:1;fill-rule:nonzero;stroke:none"
                 id="path80" /><path
                 inkscape:connector-curvature="0"
                 d="m 441.926,582.742 7.496,-15.189 16.763,-2.436 -12.13,-11.823 2.863,-16.695 -14.992,7.882 -14.994,-7.882 2.864,16.695 -12.13,11.823 16.763,2.436 7.497,15.189 z"
                 style="fill:none;stroke:#000000;stroke-width:6;stroke-linecap:butt;stroke-linejoin:miter;stroke-miterlimit:4;stroke-dasharray:none;stroke-opacity:1"
                 id="path82" /></g></g><path
             inkscape:connector-curvature="0"
             d="m 513.763,517.478 c 0,114.183 -96.941,206.748 -216.522,206.748 -119.58,0 -216.519,-92.565 -216.519,-206.748 l 433.041,0 z"
             style="fill:none;stroke:#000000;stroke-width:6;stroke-linecap:butt;stroke-linejoin:miter;stroke-miterlimit:4;stroke-dasharray:none;stroke-opacity:1"
             id="path84" /><path
             inkscape:connector-curvature="0"
             d="m 234.51,595.749 -7.729,-6.9 -8.427,0.703 -6.535,-13.743 -11.489,-6.518 -0.901,-14.908 -2.939,-9.034 5.867,-22.01 11.084,-7.626 1.244,-8.933 22.859,-8.011 7.491,3.697 19.906,4.631 8.585,9.053 10.025,6.602 7.424,11.434 -9.219,13.675 0.86,18.183 -11.651,6.586 -8.671,12.345 -14.959,2.992 -12.825,7.782 z"
             style="fill:#a08a74;fill-opacity:1;fill-rule:nonzero;stroke:none"
             id="path86" /><path
             inkscape:connector-curvature="0"
             d="m 234.51,595.749 -7.729,-6.9 -8.427,0.703 -6.535,-13.743 -11.489,-6.518 -0.901,-14.908 -2.939,-9.034 5.867,-22.01 11.084,-7.626 1.244,-8.933 22.859,-8.011 7.491,3.697 19.906,4.631 8.585,9.053 10.025,6.602 7.424,11.434 -9.219,13.675 0.86,18.183 -11.651,6.586 -8.671,12.345 -14.959,2.992 -12.825,7.782 z"
             style="fill:none;stroke:#000000;stroke-width:6;stroke-linecap:butt;stroke-linejoin:miter;stroke-miterlimit:4;stroke-dasharray:none;stroke-opacity:1"
             id="path88" /><path
             inkscape:connector-curvature="0"
             d="m 251.426,510.431 22.129,-3.162 4.311,20.69"
             style="fill:#d59758;fill-opacity:1;fill-rule:nonzero;stroke:none"
             id="path90" /><path
             inkscape:connector-curvature="0"
             d="m 251.426,510.431 22.129,-3.162 4.311,20.69"
             style="fill:#a08a74;fill-opacity:1;stroke:#000000;stroke-width:6;stroke-linecap:butt;stroke-linejoin:miter;stroke-miterlimit:4;stroke-dasharray:none;stroke-opacity:1"
             id="path92" /><path
             inkscape:connector-curvature="0"
             d="m 208.608,558.133 -16.092,-15.518 20.115,-14.368"
             style="fill:#a08a74;fill-opacity:1;fill-rule:nonzero;stroke:none"
             id="path94" /><path
             inkscape:connector-curvature="0"
             d="m 208.608,558.133 -16.092,-15.518 20.115,-14.368"
             style="fill:none;stroke:#000000;stroke-width:6;stroke-linecap:butt;stroke-linejoin:miter;stroke-miterlimit:4;stroke-dasharray:none;stroke-opacity:1"
             id="path96" /><path
             inkscape:connector-curvature="0"
             d="m 239.644,582.56 26.438,4.31 5.747,-27.013"
             style="fill:#a08a74;fill-opacity:1;fill-rule:nonzero;stroke:none"
             id="path98" /><path
             inkscape:connector-curvature="0"
             d="m 239.644,582.56 26.438,4.31 5.747,-27.013"
             style="fill:none;stroke:#000000;stroke-width:6;stroke-linecap:butt;stroke-linejoin:miter;stroke-miterlimit:4;stroke-dasharray:none;stroke-opacity:1"
             id="path100" /><path
             inkscape:connector-curvature="0"
             d="m 225.276,539.741 16.38,-10.058 22.127,11.208"
             style="fill:#d59758;fill-opacity:1;fill-rule:nonzero;stroke:none"
             id="path102" /><path
             inkscape:connector-curvature="0"
             d="m 225.276,539.741 16.38,-10.058 22.127,11.208"
             style="fill:#a08a74;fill-opacity:1;stroke:#000000;stroke-width:6;stroke-linecap:butt;stroke-linejoin:miter;stroke-miterlimit:4;stroke-dasharray:none;stroke-opacity:1"
             id="path104" /></g></g></g></g></svg>