<?xml version="1.0" encoding="UTF-8" standalone="no"?>
<!-- Created with Inkscape (http://www.inkscape.org/) -->

<svg
   version="1.1"
   id="svg42979"
   width="800"
   height="800"
   viewBox="0 0 800 800"
   sodipodi:docname="dog-pink-pdv.svg"
   inkscape:version="1.2 (dc2aedaf03, 2022-05-15)"
   xmlns:inkscape="http://www.inkscape.org/namespaces/inkscape"
   xmlns:sodipodi="http://sodipodi.sourceforge.net/DTD/sodipodi-0.dtd"
   xmlns="http://www.w3.org/2000/svg"
   xmlns:svg="http://www.w3.org/2000/svg">
  <defs
     id="defs42983">
    <clipPath
       clipPathUnits="userSpaceOnUse"
       id="clipPath42995">
      <path
         d="M 0,600 H 600 V 0 H 0 Z"
         id="path42993" />
    </clipPath>
  </defs>
  <sodipodi:namedview
     id="namedview42981"
     pagecolor="#ffffff"
     bordercolor="#000000"
     borderopacity="0.25"
     inkscape:showpageshadow="2"
     inkscape:pageopacity="0.0"
     inkscape:pagecheckerboard="0"
     inkscape:deskcolor="#d1d1d1"
     showgrid="false"
     inkscape:zoom="1.04625"
     inkscape:cx="400"
     inkscape:cy="400.4779"
     inkscape:window-width="1920"
     inkscape:window-height="1017"
     inkscape:window-x="-8"
     inkscape:window-y="-8"
     inkscape:window-maximized="1"
     inkscape:current-layer="g42987">
    <inkscape:page
       x="0"
       y="0"
       id="page42985"
       width="800"
       height="800" />
  </sodipodi:namedview>
  <g
     id="g42987"
     inkscape:groupmode="layer"
     inkscape:label="Page 1"
     transform="matrix(1.3333333,0,0,-1.3333333,0,800)">
    <g
       id="g42989">
      <g
         id="g42991"
         clip-path="url(#clipPath42995)">
        <g
           id="g42997"
           transform="translate(331.1543,564.5972)">
          <path
             d="M 0,0 C -9.036,3.57 -17.929,5.154 -28.708,5.189 -39.258,5.23 -41.589,4.565 -47.292,-0.484 l 27.849,-1.783 z"
             style="fill:#ed1551;fill-opacity:1;fill-rule:nonzero;stroke:none"
             id="path42999" />
        </g>
        <g
           id="g43001"
           transform="translate(261.4419,43.1465)">
          <path
             d="m 0,0 -0.256,-6.884 2.78,-2.12 c 1.529,-1.166 4.378,-3.483 6.328,-5.144 3.483,-2.973 3.722,-3.032 13.065,-3.271 5.23,-0.134 9.768,-0.496 10.077,-0.806 0.793,-0.796 1.816,-0.712 5.795,0.482 2.817,0.842 3.482,1.464 3.482,3.259 0,1.219 1.268,3.659 2.817,5.421 1.548,1.764 2.237,2.709 2.446,4.109 z"
             style="fill:#c40f76;fill-opacity:1;fill-rule:nonzero;stroke:none"
             id="path43003" />
        </g>
        <g
           id="g43005"
           transform="translate(307.8643,41.9707)">
          <path
             d="M 0,0 C -0.165,1.581 -0.648,3.488 -1.353,5.518 L -46.285,4.873 -46.422,1.176 0.111,-3.778 C 0.249,-2.847 0.177,-1.714 0,0"
             style="fill:#9e51af;fill-opacity:1;fill-rule:nonzero;stroke:none"
             id="path43007" />
        </g>
        <g
           id="g43009"
           transform="translate(341.0723,560.0024)">
          <path
             d="M 0,0 C -1.597,0.826 -3.244,1.64 -4.944,2.44 -6.615,3.226 -8.269,3.943 -9.918,4.595 L -29.361,2.328 Z"
             style="fill:#ed1b52;fill-opacity:1;fill-rule:nonzero;stroke:none"
             id="path43011" />
        </g>
        <g
           id="g43013"
           transform="translate(300.6885,58.9023)">
          <path
             d="m 0,0 c -0.301,0.43 -0.547,0.83 -0.748,1.225 l -38.149,-7.577 -0.212,-5.707 44.932,0.645 C 4.499,-7.607 2.378,-3.366 0,0"
             style="fill:#ba299c;fill-opacity:1;fill-rule:nonzero;stroke:none"
             id="path43015" />
        </g>
        <g
           id="g43017"
           transform="translate(432.8818,269.4072)">
          <path
             d="M 0,0 C 0.055,0.134 0.108,0.268 0.159,0.401 L -0.573,0.161 Z"
             style="fill:#f2bfe2;fill-opacity:1;fill-rule:nonzero;stroke:none"
             id="path43019" />
        </g>
        <g
           id="g43021"
           transform="translate(432.6182,268.7725)">
          <path
             d="M 0,0 C 0.089,0.211 0.178,0.423 0.264,0.635 L -0.31,0.796 Z"
             style="fill:#dabfe4;fill-opacity:1;fill-rule:nonzero;stroke:none"
             id="path43023" />
        </g>
        <g
           id="g43025"
           transform="translate(432.3086,269.5684)">
          <path
             d="m 0,0 1.268,1.676 c 5.256,14.941 2.349,33.689 -9.085,60.554 -1.501,3.531 -3.205,9.134 -3.781,12.447 -0.576,3.313 -2.211,9.448 -3.622,13.635 -1.985,5.874 -2.577,9.284 -2.584,14.885 -0.005,5.844 -0.366,7.803 -1.851,9.976 -1.876,2.744 -5.387,9.476 -8.699,16.401 l -1.795,0.323 z"
             style="fill:#f79341;fill-opacity:1;fill-rule:nonzero;stroke:none"
             id="path43027" />
        </g>
        <g
           id="g43029"
           transform="translate(433.041,269.8086)">
          <path
             d="M 0,0 C 0.187,0.474 0.366,0.954 0.535,1.435 L -0.732,-0.24 Z"
             style="fill:#fab36b;fill-opacity:1;fill-rule:nonzero;stroke:none"
             id="path43031" />
        </g>
        <g
           id="g43033"
           transform="translate(403.9541,399.1421)">
          <path
             d="M 0,0 C -0.132,0.278 -0.265,0.555 -0.396,0.833 L -1.795,0.324 Z"
             style="fill:#f25449;fill-opacity:1;fill-rule:nonzero;stroke:none"
             id="path43035" />
        </g>
        <g
           id="g43037"
           transform="translate(403.5586,399.9751)">
          <path
             d="M 0,0 C -0.371,0.779 -0.736,1.559 -1.098,2.333 L -1.399,-0.509 Z"
             style="fill:#f14a4b;fill-opacity:1;fill-rule:nonzero;stroke:none"
             id="path43039" />
        </g>
        <g
           id="g43041"
           transform="translate(410.0967,444.0171)">
          <path
             d="M 0,0 C 3.786,-1.98 4.479,-0.254 2.491,6.194 1.083,10.76 -0.078,15.313 -1.062,20.229 L -2.991,2.045 C -2.039,1.238 -1.036,0.545 0,0"
             style="fill:#f14a4b;fill-opacity:1;fill-rule:nonzero;stroke:none"
             id="path43043" />
        </g>
        <g
           id="g43045"
           transform="translate(432.0977,267.5938)">
          <path
             d="M 0,0 C 0.18,0.39 0.353,0.783 0.521,1.179 L 0.211,1.975 Z"
             style="fill:#e5bbdd;fill-opacity:1;fill-rule:nonzero;stroke:none"
             id="path43047" />
        </g>
        <g
           id="g43049"
           transform="translate(408.6279,125.5137)">
          <path
             d="M 0,0 C 0.024,0.37 0.05,0.773 0.074,1.204 L 0.013,1.195 Z"
             style="fill:#a597d3;fill-opacity:1;fill-rule:nonzero;stroke:none"
             id="path43051" />
        </g>
        <g
           id="g43053"
           transform="translate(410.5488,59.1963)">
          <path
             d="m 0,0 c 5.715,1.634 5.732,1.651 7.18,6.253 1.379,4.383 1.357,4.921 -0.432,10.933 -1.038,3.479 -2.146,8.816 -2.466,11.862 -0.367,3.515 -0.986,5.534 -1.704,5.534 -1.342,0 -1.641,1.139 -3.612,13.932 -0.496,3.221 -0.822,6.111 -0.986,8.794 L -2.649,-0.689 C -1.796,-0.491 -0.915,-0.263 0,0"
             style="fill:#a597d3;fill-opacity:1;fill-rule:nonzero;stroke:none"
             id="path43055" />
        </g>
        <g
           id="g43057"
           transform="translate(408.7021,126.7178)">
          <path
             d="M 0,0 C 0.005,0.102 0.012,0.206 0.017,0.312 L -0.061,-0.009 Z"
             style="fill:#b5addd;fill-opacity:1;fill-rule:nonzero;stroke:none"
             id="path43059" />
        </g>
        <g
           id="g43061"
           transform="translate(432.3086,269.5684)">
          <path
             d="M 0,0 -30.149,129.897 -95.238,26.768 Z"
             style="fill:#f79041;fill-opacity:1;fill-rule:nonzero;stroke:none"
             id="path43063" />
        </g>
        <g
           id="g43065"
           transform="translate(222.2051,551.5024)">
          <path
             d="M 0,0 C -4.517,0.443 -6.159,0.174 -7.588,-2.934 L 7.765,-0.758 C 4.299,-0.42 1.433,-0.14 0,0"
             style="fill:#ed1051;fill-opacity:1;fill-rule:nonzero;stroke:none"
             id="path43067" />
        </g>
        <g
           id="g43069"
           transform="translate(283.8623,564.1128)">
          <path
             d="m 0,0 c -0.142,-0.125 -0.284,-0.25 -0.43,-0.382 -3.254,-2.918 -3.823,-3.105 -7.892,-2.625 -4.134,0.489 -4.384,0.4 -4.384,-1.583 0,-1.37 -0.41,-2.358 -1.394,-3.139 l 41.949,5.946 z"
             style="fill:#ed1051;fill-opacity:1;fill-rule:nonzero;stroke:none"
             id="path43071" />
        </g>
        <g
           id="g43073"
           transform="translate(310.0205,191.7988)">
          <path
             d="m 0,0 103.76,-3.605 c 0.636,2.979 1.307,5.667 1.998,7.918 0.104,0.337 0.212,0.709 0.323,1.114 l -79.031,99.11 z"
             style="fill:#f68d85;fill-opacity:1;fill-rule:nonzero;stroke:none"
             id="path43075" />
        </g>
        <g
           id="g43077"
           transform="translate(337.0703,296.3359)">
          <path
             d="m 0,0 79.031,-99.11 c 2.313,8.378 6.301,30.673 8.801,49.377 1.309,9.763 1.812,11.43 5.172,17.129 0.743,1.261 1.417,2.546 2.023,3.862 l 0.211,1.974 z"
             style="fill:#f9a97d;fill-opacity:1;fill-rule:nonzero;stroke:none"
             id="path43079" />
        </g>
        <g
           id="g43081"
           transform="translate(408.2695,468.3521)">
          <path
             d="m 0,0 c -0.912,5.259 -1.659,11 -2.313,17.625 -0.808,8.18 -1.751,15.875 -2.103,17.095 -0.612,2.153 -10.855,11.638 -20.755,19.223 -1.047,0.802 -2.277,1.933 -3.509,3.19 l -56.045,-67.411 z"
             style="fill:#ee2750;fill-opacity:1;fill-rule:nonzero;stroke:none"
             id="path43083" />
        </g>
        <g
           id="g43085"
           transform="translate(408.6406,126.709)">
          <path
             d="M 0,0 0.078,0.321 C 0.32,4.896 0.48,12.377 0.443,18.46 0.375,30.729 2.424,48.766 5.14,61.485 L -98.62,65.09 Z"
             style="fill:#e0a3c3;fill-opacity:1;fill-rule:nonzero;stroke:none"
             id="path43087" />
        </g>
        <g
           id="g43089"
           transform="translate(402.1592,399.4658)">
          <path
             d="m 0,0 -117.498,-29.869 52.409,-73.261 z"
             style="fill:#f46c46;fill-opacity:1;fill-rule:nonzero;stroke:none"
             id="path43091" />
        </g>
        <g
           id="g43093"
           transform="translate(323.5449,458.0742)">
          <path
             d="m 0,0 56.045,67.411 c -1.883,1.924 -3.768,4.149 -4.991,5.965 -7.926,11.741 -18.5,20.777 -33.527,28.552 l -29.361,2.328 z"
             style="fill:#ee2151;fill-opacity:1;fill-rule:nonzero;stroke:none"
             id="path43095" />
        </g>
        <g
           id="g43097"
           transform="translate(347.8281,86.4033)">
          <path
             d="m 0,0 c 1.863,-1.676 3.499,-1.948 9.668,-2.707 11.03,-1.357 14.593,-3.362 16.595,-9.321 0.832,-2.472 1.54,-5.731 1.578,-7.254 0.068,-2.476 0.585,-2.978 4.995,-4.805 2.7,-1.118 5.853,-1.912 6.998,-1.763 1.145,0.151 3.69,-0.489 5.656,-1.421 3.87,-1.836 8.465,-2.048 14.581,-0.625 l 0.63,57.997 c -0.181,2.983 -0.164,5.712 0.049,8.34 0.018,0.208 0.033,0.434 0.05,0.669 l 0.013,1.196 z"
             style="fill:#bb7bc4;fill-opacity:1;fill-rule:nonzero;stroke:none"
             id="path43099" />
        </g>
        <g
           id="g43101"
           transform="translate(288.8872,131.2168)">
          <path
             d="m 0,0 10.872,-32.75 c 2.712,2.414 3.724,2.495 7.625,2.507 4.373,0.016 5.374,0.346 6.892,2.273 2.673,3.4 8.494,3.197 11.526,-0.404 1.23,-1.459 3.13,-2.94 4.222,-3.28 3.442,-1.081 12.676,-7.601 16.01,-11.302 0.694,-0.769 1.253,-1.372 1.794,-1.857 l 60.812,40.305 z"
             style="fill:#db67ba;fill-opacity:1;fill-rule:nonzero;stroke:none"
             id="path43103" />
        </g>
        <g
           id="g43105"
           transform="translate(310.0205,191.7988)">
          <path
             d="M 0,0 -21.133,-60.582 98.62,-65.09 Z"
             style="fill:#ed78a6;fill-opacity:1;fill-rule:nonzero;stroke:none"
             id="path43107" />
        </g>
        <g
           id="g43109"
           transform="translate(402.1592,399.4658)">
          <path
             d="m 0,0 0.302,2.843 c -2.274,4.889 -4.309,9.582 -5.447,12.73 -6.572,18.194 -11.354,35.28 -11.354,40.558 0,6.024 0.489,6.418 8.048,6.46 l 4.893,0.026 1.589,-5.309 C -0.715,53.109 1.839,49.227 4.946,46.597 L 6.875,64.78 C 6.608,66.12 6.353,67.486 6.11,68.886 L -78.614,58.608 Z"
             style="fill:#f03d4d;fill-opacity:1;fill-rule:nonzero;stroke:none"
             id="path43111" />
        </g>
        <g
           id="g43113"
           transform="translate(323.5449,458.0742)">
          <path
             d="M 0,0 -38.883,-88.477 78.614,-58.608 Z"
             style="fill:#f14b4b;fill-opacity:1;fill-rule:nonzero;stroke:none"
             id="path43115" />
        </g>
        <g
           id="g43117"
           transform="translate(311.7109,562.3301)">
          <path
             d="m 0,0 -41.948,-5.946 c -0.713,-0.566 -1.727,-1.024 -3.113,-1.435 -3.717,-1.108 -4.607,-2.195 -3.493,-4.267 1.321,-2.471 -0.495,-3.627 -4.618,-2.935 -1.736,0.289 -9.448,1.14 -17.134,1.886 -3.854,0.374 -7.948,0.772 -11.435,1.111 l -15.353,-2.175 c -0.498,-1.085 -0.97,-2.512 -1.531,-4.379 -0.401,-1.339 -0.665,-2.294 -0.792,-3.006 l 111.251,-83.11 z"
             style="fill:#ed1b52;fill-opacity:1;fill-rule:nonzero;stroke:none"
             id="path43119" />
        </g>
        <g
           id="g43121"
           transform="translate(212.2935,541.1846)">
          <path
             d="m 0,0 c -0.248,-1.387 0.025,-1.852 0.82,-2.432 1.187,-0.869 1.124,-1.3 -0.538,-3.409 -1.326,-1.684 -1.869,-3.59 -1.79,-6.285 0.064,-2.124 -0.309,-5.688 -0.825,-7.92 -2.263,-9.826 -0.672,-16.233 5.938,-23.892 5.827,-6.754 14.69,-19.386 14.705,-20.964 0.026,-1.96 10.908,-10.141 13.485,-10.141 3.133,0 8.567,-3.211 13.645,-7.91 l 65.811,-0.157 z"
             style="fill:#ed1a52;fill-opacity:1;fill-rule:nonzero;stroke:none"
             id="path43123" />
        </g>
        <g
           id="g43125"
           transform="translate(234.2236,296.8994)">
          <path
             d="m 0,0 75.797,-105.101 27.05,104.538 z"
             style="fill:#f2524a;fill-opacity:1;fill-rule:nonzero;stroke:none"
             id="path43127" />
        </g>
        <g
           id="g43129"
           transform="translate(284.6616,369.5972)">
          <path
             d="M 0,0 -50.438,-72.698 52.409,-73.261 Z"
             style="fill:#f25b48;fill-opacity:1;fill-rule:nonzero;stroke:none"
             id="path43131" />
        </g>
        <g
           id="g43133"
           transform="translate(323.5449,458.0742)">
          <path
             d="m 0,0 -65.811,0.157 c 0.899,-0.831 1.786,-1.708 2.648,-2.624 4.804,-5.107 6.518,-7.829 9.831,-15.632 3.915,-9.22 4.017,-9.677 3.968,-18.913 -0.04,-8.468 -0.411,-10.746 -6.3,-32.655 l 16.781,-18.81 z"
             style="fill:#ef324f;fill-opacity:1;fill-rule:nonzero;stroke:none"
             id="path43135" />
        </g>
        <g
           id="g43137"
           transform="translate(234.2236,296.8994)">
          <path
             d="m 0,0 -3.748,-9.356 c 0.039,-1.733 0.278,-3.185 0.719,-4.877 0.645,-2.483 1.178,-7.537 1.183,-11.235 0.01,-6.41 -0.16,-6.97 -3.734,-12.168 -4.863,-7.079 -10.294,-12.734 -13.517,-14.071 -1.971,-0.816 -2.573,-1.662 -2.573,-3.616 0,-1.407 -0.409,-3.485 -0.916,-4.624 -0.505,-1.14 -2.285,-8.65 -3.952,-16.688 l -3.036,-14.607 -5.99,-8.155 111.361,-5.704 z"
             style="fill:#ee2551;fill-opacity:1;fill-rule:nonzero;stroke:none"
             id="path43139" />
        </g>
        <g
           id="g43141"
           transform="translate(299.4639,65.001)">
          <path
             d="m 0,0 c 0.506,3.16 0.325,3.67 -1.604,4.555 -3.418,1.554 -7.381,12.222 -6.63,17.836 0.347,2.572 1.63,4.463 5.742,8.442 1.131,1.095 2.027,1.956 2.787,2.633 L -10.577,66.216 -49.585,9.219 c 0.86,0.508 1.898,0.63 3.648,0.63 3.004,0 4.293,-0.544 6.334,-2.68 l 2.56,-2.674 -0.617,-16.616 -0.012,-0.33 38.149,7.577 C -0.24,-3.464 -0.34,-2.143 0,0"
             style="fill:#d31177;fill-opacity:1;fill-rule:nonzero;stroke:none"
             id="path43143" />
        </g>
        <g
           id="g43145"
           transform="translate(310.0205,191.7988)">
          <path
             d="m 0,0 -111.361,5.703 -1.318,-1.793 91.546,-64.492 z"
             style="fill:#ef2b4e;fill-opacity:1;fill-rule:nonzero;stroke:none"
             id="path43147" />
        </g>
        <g
           id="g43149"
           transform="translate(284.6616,369.5972)">
          <path
             d="m 0,0 -22.33,-2.318 c -1.989,-7.866 -3.466,-14.117 -3.804,-16.243 -0.959,-6.014 -1.416,-6.914 -6.641,-13.071 -11.429,-13.469 -17.111,-23.831 -19.777,-36.684 l 2.114,-4.382 z"
             style="fill:#f0404c;fill-opacity:1;fill-rule:nonzero;stroke:none"
             id="path43151" />
        </g>
        <g
           id="g43153"
           transform="translate(267.8813,388.4077)">
          <path
             d="m 0,0 c -0.329,-1.226 -0.675,-2.508 -1.039,-3.86 -1.61,-5.977 -3.175,-11.987 -4.511,-17.268 l 22.33,2.318 z"
             style="fill:#ef2f4f;fill-opacity:1;fill-rule:nonzero;stroke:none"
             id="path43155" />
        </g>
        <g
           id="g43157"
           transform="translate(203.7637,109.1377)">
          <path
             d="m 0,0 c 0.387,-1.003 0.922,-2.152 1.643,-3.638 1.561,-3.22 3.158,-6.933 3.552,-8.243 0.335,-1.127 0.342,-4.575 0.087,-9.172 L 18.39,-46.118 c 2.66,-0.603 6.23,-0.405 10.756,0.602 8.038,1.789 11.818,3.9 14.801,8.25 0.817,1.189 1.426,1.912 2.169,2.348 l 39.008,56.997 z"
             style="fill:#da1352;fill-opacity:1;fill-rule:nonzero;stroke:none"
             id="path43159" />
        </g>
        <g
           id="g43161"
           transform="translate(197.3418,195.709)">
          <path
             d="m 0,0 -0.021,-0.028 c -0.973,-1.326 -1.822,-2.501 -2.564,-3.554 l 2.379,-50.587 c 2.254,-4.415 3.696,-8.21 3.696,-9.788 0,-1.592 0.649,-4.143 1.432,-5.667 1.098,-2.12 1.3,-4.186 0.868,-8.75 -0.378,-3.957 -0.38,-5.573 0.632,-8.197 l 85.123,22.079 z"
             style="fill:#eb1050;fill-opacity:1;fill-rule:nonzero;stroke:none"
             id="path43163" />
        </g>
        <g
           id="g43165"
           transform="translate(232.1099,301.2813)">
          <path
             d="M 0,0 C -0.271,-1.311 -0.512,-2.648 -0.724,-4.017 L 2.114,-4.382 Z"
             style="fill:#ef2e4f;fill-opacity:1;fill-rule:nonzero;stroke:none"
             id="path43167" />
        </g>
        <g
           id="g43169"
           transform="translate(231.3862,297.2646)">
          <path
             d="m 0,0 c -0.102,-0.652 -0.199,-1.308 -0.287,-1.977 -0.458,-3.455 -0.668,-5.782 -0.624,-7.745 l 3.748,9.357 z"
             style="fill:#ee2450;fill-opacity:1;fill-rule:nonzero;stroke:none"
             id="path43171" />
        </g>
        <g
           id="g43173"
           transform="translate(207.5479,71.9199)">
          <path
             d="M 0,0 -0.651,-5.187 H 4.32 c 3.318,0 5.347,-0.449 6.092,-1.347 0.973,-1.17 2.372,-1.954 4.193,-2.366 L 1.498,16.165 C 1.242,11.542 0.722,5.76 0,0"
             style="fill:#d61259;fill-opacity:1;fill-rule:nonzero;stroke:none"
             id="path43175" />
        </g>
        <g
           id="g43177"
           transform="translate(190.5044,183.6494)">
          <path
             d="m 0,0 c 0.287,-1.129 0.106,-6.791 -0.395,-12.574 -1.091,-12.575 -0.431,-15.547 6.281,-28.106 0.258,-0.484 0.505,-0.959 0.745,-1.429 L 4.252,8.478 C 0.682,3.419 -0.326,1.315 0,0"
             style="fill:#ed1051;fill-opacity:1;fill-rule:nonzero;stroke:none"
             id="path43179" />
        </g>
      </g>
    </g>
  </g>
</svg>
